IKResults
version=1
nRows=7
nColumns=63
inDegrees=yes

Units are S.I. units (second, meters, Newtons, ...)
If the header above contains a line with 'inDegrees', this indicates whether rotational values are in degrees (yes) or radians (no).

endheader
time	pelvis_tilt	pelvis_list	pelvis_rotation	pelvis_tx	pelvis_ty	pelvis_tz	hip_flexion_r	hip_adduction_r	hip_rotation_r	knee_angle_r	knee_angle_r_beta	ankle_angle_r	subtalar_angle_r	mtp_angle_r	hip_flexion_l	hip_adduction_l	hip_rotation_l	knee_angle_l	knee_angle_l_beta	ankle_angle_l	subtalar_angle_l	mtp_angle_l	L5_S1_Flex_Ext	L5_S1_Lat_Bending	L5_S1_axial_rotation	L4_L5_Flex_Ext	L4_L5_Lat_Bending	L4_L5_axial_rotation	L3_L4_Flex_Ext	L3_L4_Lat_Bending	L3_L4_axial_rotation	L2_L3_Flex_Ext	L2_L3_Lat_Bending	L2_L3_axial_rotation	L1_L2_Flex_Ext	L1_L2_Lat_Bending	L1_L2_axial_rotation	L1_T12_Flex_Ext	L1_T12_Lat_Bending	L1_T12_axial_rotation	Abs_r3	Abs_r2	Abs_r1	Abs_t1	Abs_t2	neck_flexion	neck_bending	neck_rotation	arm_flex_r	arm_add_r	arm_rot_r	elbow_flex_r	pro_sup_r	wrist_flex_r	wrist_dev_r	arm_flex_l	arm_add_l	arm_rot_l	elbow_flex_l	pro_sup_l	wrist_flex_l	wrist_dev_l
      0.03333333	      0.21065680	     -3.38140363	    -92.35819777	     -0.64833227	      0.91697125	     -0.94997861	     -5.69761895	    -13.21613793	     -8.25937716	     21.07597700	      0.36784519	      0.00000000	      0.00000000	      0.00000000	    -17.08247453	     -2.85271765	    -32.54218218	      9.49116240	      0.16565203	      0.00000000	      0.00000000	      0.00000000	     -4.05270502	      0.30627339	      2.83115299	     -7.52627849	      0.40734361	      3.00810005	     -6.65818907	      0.74467312	      3.00810005	     -4.63183656	      0.74467312	      2.47725887	     -3.76334188	      0.62455269	      2.30031180	     -2.31571565	      0.47441748	      2.12336474	    -28.94806666	      3.46462582	     15.74602358	      0.00000000	      0.00000000	     22.11347143	     -7.35486991	     31.90155025	      2.99619302	    -33.53961599	     93.14754476	      4.05941132	     89.99559364	      0.00000000	      0.00000000	      5.45486838	    -12.52601941	     27.29788579	     38.97081725	     89.99559364	      0.00000000	      0.00000000
      0.06666667	      0.22272887	     -3.35216008	    -92.39079751	     -0.64801015	      0.91673293	     -0.94855613	     -5.65743431	    -13.12161576	     -8.25453582	     21.07943003	      0.36790546	      0.00000000	      0.00000000	      0.00000000	    -17.11348999	     -2.81891600	    -32.54281354	      9.49823770	      0.16577552	      0.00000000	      0.00000000	      0.00000000	     -4.06119142	      0.30310539	      2.82036602	     -7.54203858	      0.40313017	      2.99663890	     -6.67213138	      0.73697045	      2.99663890	     -4.64153567	      0.73697045	      2.46782027	     -3.77122235	      0.61809252	      2.29154739	     -2.32056478	      0.46951025	      2.11527452	    -29.00868418	      3.42878884	     15.68602970	      0.00000000	      0.00000000	     22.06966932	     -7.47176671	     31.99196382	      3.23066900	    -33.76002932	     93.30734267	      4.61629031	     89.99559364	      0.00000000	      0.00000000	      5.55699507	    -12.61149284	     27.26644636	     38.96632956	     89.99559364	      0.00000000	      0.00000000
      0.10000000	     -0.10483652	     -3.91916513	    -93.20628433	     -0.64720055	      0.91706459	     -0.94516344	     -6.07099853	    -12.80032861	     -7.20656025	     21.68094428	      0.37840386	      0.00000000	      0.00000000	      0.00000000	    -18.19681765	     -2.69511375	    -32.64726225	      9.26345799	      0.16167784	      0.00000000	      0.00000000	      0.00000000	     -4.18864521	      0.33022116	      2.97203089	     -7.77873303	      0.43919414	      3.15778282	     -6.88152522	      0.80289972	      3.15778282	     -4.78720262	      0.80289972	      2.60052703	     -3.88957595	      0.67338698	      2.41477510	     -2.39339188	      0.51151257	      2.22902317	    -29.91907390	      3.73552775	     16.52954419	      0.00000000	      0.00000000	     22.40668471	     -7.63928926	     32.44129018	      5.36219376	    -32.69102211	    138.12230675	      3.79890554	     89.99559364	      0.00000000	      0.00000000	      5.84490546	    -12.31503412	     26.98747220	     38.85642285	     89.99559364	      0.00000000	      0.00000000
      0.13333333	     -0.33903195	     -4.22706205	    -93.41377035	     -0.64576912	      0.91696372	     -0.94040817	     -6.44500237	    -12.36225634	     -6.85543988	     21.83136426	      0.38102919	      0.00000000	      0.00000000	      0.00000000	    -18.86332505	     -2.77155375	    -32.77320807	      9.31826365	      0.16263438	      0.00000000	      0.00000000	      0.00000000	     -4.27844370	      0.35242052	      2.98625530	     -7.94549779	      0.46871929	      3.17289626	     -7.02905515	      0.85687525	      3.17289626	     -4.88983330	      0.85687525	      2.61297339	     -3.97296282	      0.71865592	      2.42633243	     -2.44470273	      0.54589938	      2.23969148	    -30.56049550	      3.98665140	     16.60865611	      0.00000000	      0.00000000	     22.56532454	     -7.87134834	     32.84200703	      5.69128443	    -31.55569708	    166.27133524	      2.06826210	     89.99559364	      0.00000000	      0.00000000	      6.14685157	    -12.27657607	     26.70708324	     38.78464248	     89.99559364	      0.00000000	      0.00000000
      0.16666667	     -0.50344799	     -4.42554972	    -93.85650280	     -0.64464317	      0.91669366	     -0.93402660	     -6.63510097	    -11.93280620	     -6.63089632	     21.93892405	      0.38290646	      0.00000000	      0.00000000	      0.00000000	    -19.51598618	     -2.73232207	    -32.83614802	      9.42334663	      0.16446843	      0.00000000	      0.00000000	      0.00000000	     -4.35858589	      0.34738811	      3.01137518	     -8.09432986	      0.46202619	      3.19958613	     -7.16072076	      0.84463946	      3.19958613	     -4.98142781	      0.84463946	      2.63495329	     -4.04738286	      0.70839384	      2.44674234	     -2.49049598	      0.53810419	      2.25853139	    -31.13294316	      3.92972382	     16.74836537	      0.00000000	      0.00000000	     22.63920791	     -8.02214397	     33.29988023	      5.94873336	    -30.90015056	    182.60490593	      0.47213161	     89.99559364	      0.00000000	      0.00000000	      6.42286583	    -12.35107738	     25.99676867	     38.66191480	     89.99559364	      0.00000000	      0.00000000
      0.20000000	     -0.55843995	     -4.42624362	    -93.81184155	     -0.64330266	      0.91629739	     -0.92618641	     -6.79425619	    -11.43457943	     -6.50187050	     22.01130508	      0.38416975	      0.00000000	      0.00000000	      0.00000000	    -19.79547246	     -2.91220670	    -32.94450669	     10.22899889	      0.17852971	      0.00000000	      0.00000000	      0.00000000	     -4.41238883	      0.32645355	      2.93930622	     -8.19424730	      0.43418321	      3.12301286	     -7.24911362	      0.79373915	      3.12301286	     -5.04291920	      0.79373915	      2.57189294	     -4.09734427	      0.66570407	      2.38818630	     -2.52123898	      0.50567654	      2.20447967	    -31.51725221	      3.69290779	     16.34753940	      0.00000000	      0.00000000	     22.64484487	     -7.99821864	     33.66198423	      7.07927559	    -30.06123193	    190.06340245	      0.18140083	     89.99559364	      0.00000000	      0.00000000	      6.70959120	    -12.70691578	     25.13341768	     38.71527677	     89.99559364	      0.00000000	      0.00000000
      0.23333333	     -0.56051670	     -3.88288924	    -93.43955716	     -0.64131406	      0.91473408	     -0.91586466	     -6.60353699	    -10.92472460	     -6.34103281	     22.10500921	      0.38580519	      0.00000000	      0.00000000	      0.00000000	    -19.58241449	     -3.22448769	    -33.30194714	     10.60969349	      0.18517408	      0.00000000	      0.00000000	      0.00000000	     -4.35312833	      0.29410560	      2.81139042	     -8.08419463	      0.39116045	      2.98710233	     -7.15175454	      0.71508836	      2.98710233	     -4.97519037	      0.71508836	      2.45996662	     -4.04231497	      0.59974014	      2.28425472	     -2.48737753	      0.45556958	      2.10854282	    -31.09396037	      3.32698139	     15.63611012	      0.00000000	      0.00000000	     22.22453505	     -8.04981120	     33.38502338	      8.31308423	    -28.71942246	    195.77629945	      0.10468463	     89.99559364	      0.00000000	      0.00000000	      6.82268867	    -13.18018360	     24.12207704	     38.56618034	     89.99559364	      0.00000000	      0.00000000
